<svg width="19" height="19" viewBox="0 0 19 19" fill="none" xmlns="http://www.w3.org/2000/svg">
<path d="M17.9995 13.7274V16.2866C18.0004 16.5242 17.9517 16.7593 17.8563 16.977C17.7609 17.1947 17.6211 17.3901 17.4457 17.5507C17.2702 17.7113 17.0632 17.8336 16.8376 17.9097C16.6121 17.9858 16.3732 18.0141 16.1361 17.9927C13.5059 17.7075 10.9794 16.8105 8.75957 15.3738C6.69433 14.0641 4.94337 12.3166 3.63104 10.2554C2.18648 8.02997 1.28751 5.4962 1.00694 2.85939C0.985578 2.62349 1.01367 2.38574 1.08942 2.16127C1.16518 1.9368 1.28693 1.73053 1.44694 1.55559C1.60694 1.38065 1.80169 1.24089 2.01879 1.14518C2.23589 1.04948 2.47057 0.99994 2.7079 0.999716H5.27217C5.68698 0.995642 6.08913 1.14224 6.40366 1.4122C6.71818 1.68215 6.92362 2.05704 6.98168 2.46698C7.08991 3.28598 7.29063 4.09013 7.58001 4.86409C7.69501 5.16942 7.7199 5.50125 7.65173 5.82027C7.58355 6.13928 7.42518 6.43211 7.19537 6.66405L6.10983 7.74744C7.32662 9.88311 9.09844 11.6514 11.2384 12.8658L12.3239 11.7824C12.5563 11.5531 12.8497 11.395 13.1694 11.327C13.489 11.2589 13.8215 11.2838 14.1274 11.3985C14.9029 11.6873 15.7087 11.8877 16.5293 11.9957C16.9445 12.0541 17.3237 12.2629 17.5948 12.5822C17.8658 12.9015 18.0099 13.309 17.9995 13.7274Z" stroke="white" stroke-linecap="round" stroke-linejoin="round"/>
</svg>
